<?xml version="1.0" encoding="UTF-8" standalone="no"?>
<!-- Created with Inkscape (http://www.inkscape.org/) -->

<svg
   width="11in"
   height="8.5in"
   viewBox="0 0 279.4 215.9"
   version="1.1"
   id="svg5"
   sodipodi:docname="whm-sigil edit 3.22.26.svg"
   inkscape:version="1.4.3 (0d15f75042, 2025-12-25)"
   xmlns:inkscape="http://www.inkscape.org/namespaces/inkscape"
   xmlns:sodipodi="http://sodipodi.sourceforge.net/DTD/sodipodi-0.dtd"
   xmlns:xlink="http://www.w3.org/1999/xlink"
   xmlns="http://www.w3.org/2000/svg"
   xmlns:svg="http://www.w3.org/2000/svg">
  <sodipodi:namedview
     id="namedview1"
     pagecolor="#ffffff"
     bordercolor="#000000"
     borderopacity="0.25"
     inkscape:showpageshadow="2"
     inkscape:pageopacity="0.0"
     inkscape:pagecheckerboard="0"
     inkscape:deskcolor="#d1d1d1"
     inkscape:document-units="mm"
     inkscape:zoom="1"
     inkscape:cx="401.5"
     inkscape:cy="440.5"
     inkscape:window-width="1920"
     inkscape:window-height="995"
     inkscape:window-x="0"
     inkscape:window-y="0"
     inkscape:window-maximized="1"
     inkscape:current-layer="svg5" />
  <defs
     id="defs2">
    <rect
       x="279.96539"
       y="344.2106"
       width="57.077488"
       height="43.015167"
       id="rect218" />
    <rect
       x="37.859348"
       y="282.85544"
       width="27.588762"
       height="36.211845"
       id="rect212" />
    <rect
       x="245.56337"
       y="318.14993"
       width="47.327785"
       height="45.500797"
       id="rect175" />
  </defs>
  <g
     id="layer1"
     transform="matrix(1.1977234,0,0,1.5119541,38.596796,-21.287949)">
    <g
       aria-label="W"
       transform="matrix(16.378985,0,0,7.1686716,-1210.0782,-585.16509)"
       id="text113"
       style="font-size:7.05556px;white-space:pre;inline-size:10.7158;display:inline;stroke-width:0.264583">
      <path
         d="m 82.307839,92.466351 -1.340556,5.03767 h -0.642056 l -0.980723,-3.302002 q -0.05644,-0.204612 -0.112889,-0.409223 -0.05644,-0.204611 -0.09172,-0.359833 -0.03528,-0.162278 -0.04939,-0.225778 -0.0071,0.09172 -0.07761,0.395111 -0.0635,0.296333 -0.162278,0.620889 l -0.952501,3.280836 H 77.25606 l -1.333501,-5.03767 h 0.663223 l 0.783167,3.076224 q 0.08467,0.324556 0.141111,0.627945 0.0635,0.303389 0.09878,0.5715 0.03528,-0.275167 0.105834,-0.599722 0.07055,-0.324556 0.162277,-0.635001 l 0.889001,-3.040946 h 0.656167 l 0.924279,3.062113 q 0.09878,0.324556 0.169333,0.649111 0.07056,0.317501 0.105833,0.564445 0.03528,-0.261056 0.09878,-0.564445 0.0635,-0.310444 0.148167,-0.642056 l 0.776112,-3.069168 z"
         id="path19" />
    </g>
    <g
       transform="scale(0.26458333)"
       id="text173"
       style="font-size:26.6667px;white-space:pre;shape-inside:url(#rect175);display:inline" />
    <g
       transform="scale(0.26458333)"
       id="text210"
       style="font-size:26.6667px;white-space:pre;shape-inside:url(#rect212);display:inline" />
    <g
       transform="scale(0.26458333)"
       id="text216"
       style="font-size:26.6667px;white-space:pre;shape-inside:url(#rect218);display:inline" />
    <g
       aria-label="W"
       transform="matrix(16.378985,0,0,-7.1686716,-1209.5149,740.77405)"
       id="text113-3"
       style="font-size:7.05556px;white-space:pre;inline-size:10.7158;display:inline;stroke-width:0.264583">
      <path
         d="m 82.307839,92.466351 -1.340556,5.03767 h -0.642056 l -0.980723,-3.302002 q -0.05644,-0.204612 -0.112889,-0.409223 -0.05644,-0.204611 -0.09172,-0.359833 -0.03528,-0.162278 -0.04939,-0.225778 -0.0071,0.09172 -0.07761,0.395111 -0.0635,0.296333 -0.162278,0.620889 l -0.952501,3.280836 H 77.25606 l -1.333501,-5.03767 h 0.663223 l 0.783167,3.076224 q 0.08467,0.324556 0.141111,0.627945 0.0635,0.303389 0.09878,0.5715 0.03528,-0.275167 0.105834,-0.599722 0.07055,-0.324556 0.162277,-0.635001 l 0.889001,-3.040946 h 0.656167 l 0.924279,3.062113 q 0.09878,0.324556 0.169333,0.649111 0.07056,0.317501 0.105833,0.564445 0.03528,-0.261056 0.09878,-0.564445 0.0635,-0.310444 0.148167,-0.642056 l 0.776112,-3.069168 z"
         id="path25" />
    </g>
    <path
       id="rect1866"
       style="stroke-width:1.89327"
       d="m 33.236027,41.626347 h 9.240171 v 72.293613 h -9.240171 z" />
    <path
       id="rect1924"
       style="stroke-width:3.04378"
       d="M 13.800257,73.301674 H 157.62483 v 7.160113 H 13.800257 Z" />
    <path
       id="rect1866-6"
       style="stroke-width:1.96667"
       d="m 128.16434,41.746124 h 9.97822 v 72.237406 h -9.97822 z" />
  </g>
  <path
     d="m 123.39028,258.98959 c -0.69332,-1.4162 -1.57942,-2.89985 -2.65795,-4.45095 l -15.601,-23.51923 H 94.615107 l -21.841393,36.1134 h 10.862919 l 12.827481,-22.05244 c 0.924594,-1.55109 1.694963,-3.0516 2.311255,-4.50153 0.693322,-1.44993 1.232681,-2.81556 1.617921,-4.0969 0.38523,1.31506 0.96308,2.74813 1.73345,4.29921 0.7703,1.5511 1.65634,3.06847 2.65793,4.55212 l 14.56094,21.79954 c 89.01398,-47.18166 4.33948,-7.35253 4.04467,-8.14322 z m -3.71133,58.67864 -21.956946,-36.11341 H 87.205778 l -16.063247,23.67097 -1.849007,2.93359 c -0.616342,0.97785 -1.117047,1.8377 -1.502281,2.57952 -0.385234,0.77554 -0.773743,7.13575 -0.927706,7.43923 -0.07698,-0.43837 5.550249,-0.50991 5.550249,-0.50991 l 15.138752,-21.95128 c 1.078556,-1.5511 2.003117,-3.10218 2.773502,-4.65327 0.770468,-1.51737 1.348318,-2.86615 1.733437,-4.04632 0.385234,1.24762 0.924594,2.59639 1.617917,4.04632 0.693322,1.48365 1.50228,3.01788 2.426825,4.60269 l 12.711931,22.00186 z m 0,0 -21.956946,-36.11341 H 87.205778 l -16.063247,23.67097 -1.849007,2.93359 c -0.616342,0.97785 -1.117047,1.8377 -1.502281,2.57952 -0.385234,0.77554 -0.773743,7.13575 -0.927706,7.43923 -0.07698,-0.43837 5.550249,-0.50991 5.550249,-0.50991 l 15.138752,-21.95128 c 1.078556,-1.5511 2.003117,-3.10218 2.773502,-4.65327 0.770468,-1.51737 1.348318,-2.86615 1.733437,-4.04632 0.385234,1.24762 0.924594,2.59639 1.617917,4.04632 0.693322,1.48365 1.50228,3.01788 2.426825,4.60269 l 12.711931,22.00186 z m 0,0 -21.956946,-36.11341 H 87.205778 l -16.063247,23.67097 -1.849007,2.93359 c -0.616342,0.97785 -1.117047,1.8377 -1.502281,2.57952 -0.385234,0.77554 -0.773743,7.13575 -0.927706,7.43923 -0.07698,-0.43837 5.550249,-0.50991 5.550249,-0.50991 l 15.138752,-21.95128 c 1.078556,-1.5511 2.003117,-3.10218 2.773502,-4.65327 0.770468,-1.51737 1.348318,-2.86615 1.733437,-4.04632 0.385234,1.24762 0.924594,2.59639 1.617917,4.04632 0.693322,1.48365 1.50228,3.01788 2.426825,4.60269 l 12.711931,22.00186 z m 0,0 -21.956946,-36.11341 H 87.205778 l -16.063247,23.67097 -1.849007,2.93359 c -0.616342,0.97785 -1.117047,1.8377 -1.502281,2.57952 -0.385234,0.77554 -0.773743,7.13575 -0.927706,7.43923 -0.07698,-0.43837 5.550249,-0.50991 5.550249,-0.50991 l 15.138752,-21.95128 c 1.078556,-1.5511 2.003117,-3.10218 2.773502,-4.65327 0.770468,-1.51737 1.348318,-2.86615 1.733437,-4.04632 0.385234,1.24762 0.924594,2.59639 1.617917,4.04632 0.693322,1.48365 1.50228,3.01788 2.426825,4.60269 l 12.711931,22.00186 z"
     id="path25-7"
     style="font-size:7.05556px;white-space:pre;inline-size:10.7158;display:inline;stroke-width:2.86698"
     sodipodi:nodetypes="cccccccccccccccccsccccccccccccccsccccccccccccccsccccccccccccccscccccccccc" />
  <use
     x="0"
     y="0"
     xlink:href="#path25-7"
     id="use1" />
  <path
     d="M 250.16438,30.286967 195.05992,81.75049 v 24.64832 l 36.11889,37.64967 4.47627,4.33374 c 1.49209,1.4446 2.8041,2.61817 3.93604,3.5211 1.18337,0.90294 10.88823,1.81356 11.3513,2.17441 -0.66888,0.18052 -0.77806,-13.00889 -0.77806,-13.00889 L 216.6695,105.58607 c -2.36676,-2.52796 -4.73353,-4.69498 -7.10028,-6.500637 -2.31531,-1.80587 -4.37338,-3.160233 -6.17417,-4.062885 1.90369,-0.902943 3.96176,-2.167102 6.17417,-3.792152 2.26386,-1.625031 4.60488,-3.521107 7.02312,-5.688063 l 33.57202,-29.794721 z m 0,0 -55.10446,51.463523 v 24.64832 l 36.11889,37.64967 4.47627,4.33374 c 1.49209,1.4446 2.8041,2.61817 3.93604,3.5211 1.18337,0.90294 10.88823,1.81356 11.3513,2.17441 -0.66888,0.18052 -0.77806,-13.00889 -0.77806,-13.00889 L 216.6695,105.58607 c -2.36676,-2.52796 -4.73353,-4.69498 -7.10028,-6.500637 -2.31531,-1.80587 -4.37338,-3.160233 -6.17417,-4.062885 1.90369,-0.902943 3.96176,-2.167102 6.17417,-3.792152 2.26386,-1.625031 4.60488,-3.521107 7.02312,-5.688063 l 33.57202,-29.794721 z m 0,0 -55.10446,51.463523 v 24.64832 l 36.11889,37.64967 4.47627,4.33374 c 1.49209,1.4446 2.8041,2.61817 3.93604,3.5211 1.18337,0.90294 10.88823,1.81356 11.3513,2.17441 -0.66888,0.18052 -0.77806,-13.00889 -0.77806,-13.00889 L 216.6695,105.58607 c -2.36676,-2.52796 -4.73353,-4.69498 -7.10028,-6.500637 -2.31531,-1.80587 -4.37338,-3.160233 -6.17417,-4.062885 1.90369,-0.902943 3.96176,-2.167102 6.17417,-3.792152 2.26386,-1.625031 4.60488,-3.521107 7.02312,-5.688063 l 33.57202,-29.794721 z m 0,0 -55.10446,51.463523 v 24.64832 l 36.11889,37.64967 4.47627,4.33374 c 1.49209,1.4446 2.8041,2.61817 3.93604,3.5211 1.18337,0.90294 10.88823,1.81356 11.3513,2.17441 -0.66888,0.18052 -0.77806,-13.00889 -0.77806,-13.00889 L 216.6695,105.58607 c -2.36676,-2.52796 -4.73353,-4.69498 -7.10028,-6.500637 -2.31531,-1.80587 -4.37338,-3.160233 -6.17417,-4.062885 1.90369,-0.902943 3.96176,-2.167102 6.17417,-3.792152 2.26386,-1.625031 4.60488,-3.521107 7.02312,-5.688063 l 33.57202,-29.794721 z m 0,5.5e-5 -55.10446,51.463523 v 24.648325 l 36.11889,37.64964 4.47627,4.33377 c 1.49209,1.44462 2.80411,2.61817 3.93604,3.5211 1.18337,0.90293 10.88823,1.81354 11.3513,2.17438 -0.66888,0.18053 -0.77806,-13.00887 -0.77806,-13.00887 L 216.6695,105.58612 c -2.36676,-2.52796 -4.73353,-4.69496 -7.10028,-6.500627 -2.31531,-1.80587 -4.37338,-3.160257 -6.17417,-4.062909 1.90369,-0.902924 3.96176,-2.167102 6.17417,-3.792133 2.26386,-1.625031 4.60488,-3.521089 7.02312,-5.688082 l 33.57202,-29.794702 z m 0,0 -55.10446,51.463523 v 24.648325 l 36.11889,37.64964 4.47627,4.33377 c 1.49209,1.44462 2.80411,2.61817 3.93604,3.5211 1.18337,0.90293 10.88823,1.81354 11.3513,2.17438 -0.66888,0.18053 -0.77806,-13.00887 -0.77806,-13.00887 L 216.6695,105.58612 c -2.36676,-2.52796 -4.73353,-4.69496 -7.10028,-6.500627 -2.31531,-1.80587 -4.37338,-3.160257 -6.17417,-4.062909 1.90369,-0.902924 3.96176,-2.167102 6.17417,-3.792133 2.26386,-1.625031 4.60488,-3.521089 7.02312,-5.688082 l 33.57202,-29.794702 z m 0,0 -55.10446,51.463523 v 24.648325 l 36.11889,37.64964 4.47627,4.33377 c 1.49209,1.44462 2.80411,2.61817 3.93604,3.5211 1.18337,0.90293 10.88823,1.81354 11.3513,2.17438 -0.66888,0.18053 -0.77806,-13.00887 -0.77806,-13.00887 L 216.6695,105.58612 c -2.36676,-2.52796 -4.73353,-4.69496 -7.10028,-6.500627 -2.31531,-1.80587 -4.37338,-3.160257 -6.17417,-4.062909 1.90369,-0.902924 3.96176,-2.167102 6.17417,-3.792133 2.26386,-1.625031 4.60488,-3.521089 7.02312,-5.688082 l 33.57202,-29.794702 z m 0,0 -55.10446,51.463523 v 24.648325 l 36.11889,37.64964 4.47627,4.33377 c 1.49209,1.44462 2.80411,2.61817 3.93604,3.5211 1.18337,0.90293 10.88823,1.81354 11.3513,2.17438 -0.66888,0.18053 -0.77806,-13.00887 -0.77806,-13.00887 L 216.6695,105.58612 c -2.36676,-2.52796 -4.73353,-4.69496 -7.10028,-6.500627 -2.31531,-1.80587 -4.37338,-3.160257 -6.17417,-4.062909 1.90369,-0.902924 3.96176,-2.167102 6.17417,-3.792133 2.26386,-1.625031 4.60488,-3.521089 7.02312,-5.688082 l 33.57202,-29.794702 z"
     style="font-size:7.05556px;white-space:pre;inline-size:10.7158;display:inline;stroke-width:5.42184"
     id="path1" />
  <path
     d="m 26.802203,155.49603 55.10446,-49.04364 V 82.963044 l -36.11889,-35.879347 -4.47627,-4.129979 c -1.49209,-1.376669 -2.80409,-2.495073 -3.93603,-3.355541 -1.18338,-0.860486 -10.888236,-1.728267 -11.351306,-2.072154 0.66888,-0.172038 0.778056,12.397204 0.778056,12.397204 l 33.49486,33.814352 c 2.36677,2.409107 4.73353,4.474223 7.10028,6.194969 2.31532,1.720935 4.37338,3.011653 6.17417,3.871866 -1.90369,0.860448 -3.96176,2.065187 -6.17417,3.613819 -2.26386,1.548622 -4.60488,3.355547 -7.02311,5.420627 l -33.57203,28.39371 z m 0,0 55.10446,-49.04364 V 82.963044 l -36.11889,-35.879347 -4.47627,-4.129979 c -1.49209,-1.376669 -2.80409,-2.495073 -3.93603,-3.355541 -1.18338,-0.860486 -10.888236,-1.728267 -11.351306,-2.072154 0.66888,-0.172038 0.778056,12.397204 0.778056,12.397204 l 33.49486,33.814352 c 2.36677,2.409107 4.73353,4.474223 7.10028,6.194969 2.31532,1.720935 4.37338,3.011653 6.17417,3.871866 -1.90369,0.860448 -3.96176,2.065187 -6.17417,3.613819 -2.26386,1.548622 -4.60488,3.355547 -7.02311,5.420627 l -33.57203,28.39371 z m 0,0 55.10446,-49.04364 V 82.963044 l -36.11889,-35.879347 -4.47627,-4.129979 c -1.49209,-1.376669 -2.80409,-2.495073 -3.93603,-3.355541 -1.18338,-0.860486 -10.888236,-1.728267 -11.351306,-2.072154 0.66888,-0.172038 0.778056,12.397204 0.778056,12.397204 l 33.49486,33.814352 c 2.36677,2.409107 4.73353,4.474223 7.10028,6.194969 2.31532,1.720935 4.37338,3.011653 6.17417,3.871866 -1.90369,0.860448 -3.96176,2.065187 -6.17417,3.613819 -2.26386,1.548622 -4.60488,3.355547 -7.02311,5.420627 l -33.57203,28.39371 z m 0,0 55.10446,-49.04364 V 82.963044 l -36.11889,-35.879347 -4.47627,-4.129979 c -1.49209,-1.376669 -2.80409,-2.495073 -3.93603,-3.355541 -1.18338,-0.860486 -10.888236,-1.728267 -11.351306,-2.072154 0.66888,-0.172038 0.778056,12.397204 0.778056,12.397204 l 33.49486,33.814352 c 2.36677,2.409107 4.73353,4.474223 7.10028,6.194969 2.31532,1.720935 4.37338,3.011653 6.17417,3.871866 -1.90369,0.860448 -3.96176,2.065187 -6.17417,3.613819 -2.26386,1.548622 -4.60488,3.355547 -7.02311,5.420627 l -33.57203,28.39371 z m 0,-3e-5 55.10446,-49.04366 V 82.963009 l -36.11889,-35.879364 -4.47627,-4.129996 c -1.49209,-1.376669 -2.80411,-2.495056 -3.93603,-3.355542 -1.18338,-0.860449 -10.888236,-1.728249 -11.351306,-2.072135 0.66888,-0.172038 0.778056,12.39722 0.778056,12.39722 l 33.49486,33.814336 c 2.36677,2.409071 4.73353,4.474205 7.10028,6.194968 2.31532,1.720957 4.37338,3.011654 6.17417,3.871867 -1.90369,0.860447 -3.96176,2.065177 -6.17417,3.613799 -2.26386,1.548663 -4.60488,3.355548 -7.02311,5.420638 l -33.57203,28.39374 z m 0,0 55.10446,-49.04366 V 82.963009 l -36.11889,-35.879364 -4.47627,-4.129996 c -1.49209,-1.376669 -2.80411,-2.495056 -3.93603,-3.355542 -1.18338,-0.860449 -10.888236,-1.728249 -11.351306,-2.072135 0.66888,-0.172038 0.778056,12.39722 0.778056,12.39722 l 33.49486,33.814336 c 2.36677,2.409071 4.73353,4.474205 7.10028,6.194968 2.31532,1.720957 4.37338,3.011654 6.17417,3.871867 -1.90369,0.860447 -3.96176,2.065177 -6.17417,3.613799 -2.26386,1.548663 -4.60488,3.355548 -7.02311,5.420638 l -33.57203,28.39374 z m 0,0 55.10446,-49.04366 V 82.963009 l -36.11889,-35.879364 -4.47627,-4.129996 c -1.49209,-1.376669 -2.80411,-2.495056 -3.93603,-3.355542 -1.18338,-0.860449 -10.888236,-1.728249 -11.351306,-2.072135 0.66888,-0.172038 0.778056,12.39722 0.778056,12.39722 l 33.49486,33.814336 c 2.36677,2.409071 4.73353,4.474205 7.10028,6.194968 2.31532,1.720957 4.37338,3.011654 6.17417,3.871867 -1.90369,0.860447 -3.96176,2.065177 -6.17417,3.613799 -2.26386,1.548663 -4.60488,3.355548 -7.02311,5.420638 l -33.57203,28.39374 z m 0,0 55.10446,-49.04366 V 82.963009 l -36.11889,-35.879364 -4.47627,-4.129996 c -1.49209,-1.376669 -2.80411,-2.495056 -3.93603,-3.355542 -1.18338,-0.860449 -10.888236,-1.728249 -11.351306,-2.072135 0.66888,-0.172038 0.778056,12.39722 0.778056,12.39722 l 33.49486,33.814336 c 2.36677,2.409071 4.73353,4.474205 7.10028,6.194968 2.31532,1.720957 4.37338,3.011654 6.17417,3.871867 -1.90369,0.860447 -3.96176,2.065177 -6.17417,3.613799 -2.26386,1.548663 -4.60488,3.355548 -7.02311,5.420638 l -33.57203,28.39374 z"
     style="font-size:7.05556px;white-space:pre;inline-size:10.7158;display:inline;stroke-width:5.29284"
     id="path1-5" />
</svg>
