<svg xmlns="http://www.w3.org/2000/svg" width="224.905" height="128.869" viewBox="25.924 26.988 224.905 128.869">
  <g transform="matrix(1.1977234,0,0,1.5119541,38.596796,-21.287949)" fill="#000">
    <g transform="matrix(16.378985,0,0,7.1686716,-1210.0782,-585.16509)">
      <path d="m 82.307839,92.466351 -1.151736,5.086492 -0.830876,-0.04882 -0.980723,-3.302002 c -0.03763,-0.136408 -0.07526,-0.272816 -0.112889,-0.409223 -0.03763,-0.136407 -0.0682,-0.256352 -0.09172,-0.359833 -0.02352,-0.108185 -0.03998,-0.183445 -0.04939,-0.225778 -0.0047,0.06115 -0.0306,0.19285 -0.07761,0.395111 -0.04233,0.197555 -0.09643,0.404518 -0.162278,0.620889 l -0.952501,3.280836 h -0.749953 l -1.225604,-5.03767 h 0.663223 l 0.783167,3.076224 c 0.05645,0.216371 0.103484,0.425686 0.141111,0.627945 0.04233,0.202259 0.07526,0.392759 0.09878,0.5715 0.02352,-0.183445 0.0588,-0.383352 0.105834,-0.599722 0.04703,-0.216371 0.101126,-0.428038 0.162277,-0.635001 l 0.889001,-3.040946 h 0.656167 l 0.924279,3.062113 c 0.06585,0.216371 0.122298,0.432741 0.169333,0.649111 0.04704,0.211667 0.08232,0.399816 0.105833,0.564445 0.02352,-0.174037 0.05645,-0.362186 0.09878,-0.564445 0.04233,-0.206963 0.09172,-0.420981 0.148167,-0.642056 l 0.776112,-3.069168 z"/>
    </g>
    <g transform="matrix(16.378985,0,0,-7.1686716,-1209.5149,740.77405)">
      <path d="m 82.307839,92.466351 -1.192198,4.915615 -0.790414,0.122055 -0.980723,-3.302002 -0.112889,-0.409223 c -0.03763,-0.136407 -0.0682,-0.256352 -0.09172,-0.359833 -0.02352,-0.108185 -0.03998,-0.183445 -0.04939,-0.225778 -0.0047,0.06115 -0.0306,0.19285 -0.07761,0.395111 -0.04233,0.197555 -0.09643,0.404518 -0.162278,0.620889 l -0.804143,3.402891 -0.790414,-0.122055 -1.333501,-5.03767 h 0.663223 l 0.783167,3.076224 c 0.05645,0.216371 0.103484,0.425686 0.141111,0.627945 0.04233,0.202259 0.07526,0.392759 0.09878,0.5715 0.02352,-0.183445 0.0588,-0.383352 0.105834,-0.599722 0.04703,-0.216371 0.101126,-0.428038 0.162277,-0.635001 l 0.889001,-3.040946 h 0.656167 l 0.924279,3.062113 c 0.06585,0.216371 0.122298,0.432741 0.169333,0.649111 0.04704,0.211667 0.08232,0.399816 0.105833,0.564445 0.02352,-0.174037 0.05645,-0.362186 0.09878,-0.564445 0.04233,-0.206963 0.09172,-0.420981 0.148167,-0.642056 l 0.776112,-3.069168 z"/>
    </g>
    <path d="M 29.701544,41.626347 H 42.476198 V 113.91996 H 33.236027 Z"/>
    <path d="m 13.800257,71.376737 142.720043,-0.349989 1.10453,9.435039 H 13.800257 Z"/>
    <path d="m 128.16434,41.746124 9.75731,0.174994 5.74354,72.237402 -15.50085,-0.17499 z"/>
  </g>
</svg>
