<?xml version="1.0" encoding="UTF-8" standalone="no"?>
<!-- Created with Inkscape (http://www.inkscape.org/) -->

<svg
   width="143.82457mm"
   height="72.357185mm"
   viewBox="0 0 143.82457 72.357185"
   version="1.1"
   id="svg5"
   sodipodi:docname="whm-sigil edit.svg"
   xmlns:inkscape="http://www.inkscape.org/namespaces/inkscape"
   xmlns:sodipodi="http://sodipodi.sourceforge.net/DTD/sodipodi-0.dtd"
   xmlns="http://www.w3.org/2000/svg"
   xmlns:svg="http://www.w3.org/2000/svg">
  <sodipodi:namedview
     id="namedview1"
     pagecolor="#ffffff"
     bordercolor="#000000"
     borderopacity="0.25"
     inkscape:showpageshadow="2"
     inkscape:pageopacity="0.0"
     inkscape:pagecheckerboard="0"
     inkscape:deskcolor="#d1d1d1"
     inkscape:document-units="mm"
     inkscape:zoom="1.1136632"
     inkscape:cx="458.84607"
     inkscape:cy="150.8535"
     inkscape:window-width="1920"
     inkscape:window-height="1043"
     inkscape:window-x="0"
     inkscape:window-y="0"
     inkscape:window-maximized="1"
     inkscape:current-layer="text113-3" />
  <defs
     id="defs2">
    <rect
       x="169.71019"
       y="317.86988"
       width="123.91538"
       height="219.99469"
       id="rect17" />
    <rect
       x="279.96539"
       y="344.2106"
       width="57.077488"
       height="43.015167"
       id="rect218" />
    <rect
       x="37.859348"
       y="282.85544"
       width="27.588762"
       height="36.211845"
       id="rect212" />
    <rect
       x="245.56337"
       y="318.14993"
       width="47.327785"
       height="45.500797"
       id="rect175" />
  </defs>
  <g
     id="layer1"
     transform="translate(-13.800257,-41.626347)">
    <g
       aria-label="W"
       transform="matrix(16.378985,0,0,7.1686716,-1210.0782,-585.16509)"
       id="text113"
       style="font-size:7.05556px;white-space:pre;inline-size:10.7158;display:inline;stroke-width:0.264583">
      <path
         d="m 82.307839,92.466351 -1.340556,5.03767 h -0.642056 l -0.980723,-3.302002 q -0.05644,-0.204612 -0.112889,-0.409223 -0.05644,-0.204611 -0.09172,-0.359833 -0.03528,-0.162278 -0.04939,-0.225778 -0.0071,0.09172 -0.07761,0.395111 -0.0635,0.296333 -0.162278,0.620889 l -0.952501,3.280836 H 77.25606 l -1.333501,-5.03767 h 0.663223 l 0.783167,3.076224 q 0.08467,0.324556 0.141111,0.627945 0.0635,0.303389 0.09878,0.5715 0.03528,-0.275167 0.105834,-0.599722 0.07055,-0.324556 0.162277,-0.635001 l 0.889001,-3.040946 h 0.656167 l 0.924279,3.062113 q 0.09878,0.324556 0.169333,0.649111 0.07056,0.317501 0.105833,0.564445 0.03528,-0.261056 0.09878,-0.564445 0.0635,-0.310444 0.148167,-0.642056 l 0.776112,-3.069168 z"
         id="path19" />
    </g>
    <g
       transform="scale(0.26458333)"
       id="text173"
       style="font-size:26.6667px;white-space:pre;shape-inside:url(#rect175);display:inline" />
    <g
       transform="scale(0.26458333)"
       id="text210"
       style="font-size:26.6667px;white-space:pre;shape-inside:url(#rect212);display:inline" />
    <g
       transform="scale(0.26458333)"
       id="text216"
       style="font-size:26.6667px;white-space:pre;shape-inside:url(#rect218);display:inline" />
    <g
       aria-label="W"
       transform="matrix(16.378985,0,0,-7.1686716,-1209.5149,740.77405)"
       id="text113-3"
       style="font-size:7.05556px;white-space:pre;inline-size:10.7158;display:inline;stroke-width:0.264583">
      <path
         d="m 82.307839,92.466351 -1.340556,5.03767 h -0.642056 l -0.980723,-3.302002 q -0.05644,-0.204612 -0.112889,-0.409223 -0.05644,-0.204611 -0.09172,-0.359833 -0.03528,-0.162278 -0.04939,-0.225778 -0.0071,0.09172 -0.07761,0.395111 -0.0635,0.296333 -0.162278,0.620889 l -0.952501,3.280836 H 77.25606 l -1.333501,-5.03767 h 0.663223 l 0.783167,3.076224 q 0.08467,0.324556 0.141111,0.627945 0.0635,0.303389 0.09878,0.5715 0.03528,-0.275167 0.105834,-0.599722 0.07055,-0.324556 0.162277,-0.635001 l 0.889001,-3.040946 h 0.656167 l 0.924279,3.062113 q 0.09878,0.324556 0.169333,0.649111 0.07056,0.317501 0.105833,0.564445 0.03528,-0.261056 0.09878,-0.564445 0.0635,-0.310444 0.148167,-0.642056 l 0.776112,-3.069168 z"
         id="path25" />
      <path
         d="m 84.116418,79.600082 -1.340556,5.03767 H 82.133806 L 81.153083,81.33575 q -0.05644,-0.204612 -0.112889,-0.409223 -0.05644,-0.204611 -0.09172,-0.359833 -0.03528,-0.162278 -0.04939,-0.225778 -0.0071,0.09172 -0.07761,0.395111 -0.0635,0.296333 -0.162278,0.620889 l -0.952501,3.280836 h -0.642056 l -1.333501,-5.03767 h 0.663223 l 0.783167,3.076224 q 0.08467,0.324556 0.141111,0.627945 0.0635,0.303389 0.09878,0.5715 0.03528,-0.275167 0.105834,-0.599722 0.07055,-0.324556 0.162277,-0.635001 l 0.889001,-3.040946 h 0.656167 l 0.924279,3.062113 q 0.09878,0.324556 0.169333,0.649111 0.07056,0.317501 0.105833,0.564445 0.03528,-0.261056 0.09878,-0.564445 0.0635,-0.310444 0.148167,-0.642056 l 0.776112,-3.069168 z"
         id="path25-7"
         style="font-size:7.05556px;white-space:pre;inline-size:10.7158;display:inline;stroke-width:0.264583" />
      <text
         xml:space="preserve"
         transform="matrix(0.01615383,0,0,-0.03690828,74.688093,97.528209)"
         id="text17"
         style="fill:#000000;writing-mode:lr-tb;text-orientation:auto;direction:ltr;white-space:pre;shape-inside:url(#rect17)"><tspan
           sodipodi:role="line"
           id="tspan17"></tspan></text>
    </g>
    <path
       id="rect1866"
       style="stroke-width:1.89327"
       d="m 33.236027,41.626347 h 9.240171 v 72.293613 h -9.240171 z" />
    <path
       id="rect1924"
       style="stroke-width:3.04378"
       d="M 13.800257,73.301674 H 157.62483 v 7.160113 H 13.800257 Z" />
    <path
       id="rect1866-6"
       style="stroke-width:1.96667"
       d="m 128.16434,41.746124 h 9.97822 v 72.237406 h -9.97822 z" />
  </g>
</svg>
